HIERARCHY
ROOT hip
{
	OFFSET 0.000000 0.000000 0.000000 
	CHANNELS 6 Xposition Yposition Zposition Xrotation Zrotation Yrotation
	JOINT abdomen
	{
		OFFSET 0.000000 3.402643 0.000000 
		CHANNELS 3 Xrotation Zrotation Yrotation
		JOINT chest
		{
			OFFSET 0.000000 8.438565 -0.680529 
			CHANNELS 3 Xrotation Zrotation Yrotation
			JOINT neck
			{
				OFFSET 0.000000 10.207942 -0.272212 
				CHANNELS 3 Xrotation Zrotation Yrotation
				JOINT head
				{
					OFFSET 0.000000 3.130431 0.000000 
					CHANNELS 3 Xrotation Zrotation Yrotation
					End Site
					{
						OFFSET 0.000000 3.130435 0.000000 
					}
				}
			}
			JOINT lCollar
			{
				OFFSET 3.470700 6.669187 -0.816635 
				CHANNELS 3 Yrotation Zrotation Xrotation
				JOINT lShldr
				{
					OFFSET 3.198488 0.000000 0.000000 
					CHANNELS 3 Zrotation Yrotation Xrotation
					JOINT lForeArm
					{
						OFFSET 10.139888 0.000000 0.000000 
						CHANNELS 3 Yrotation Zrotation Xrotation
						JOINT lHand
						{
							OFFSET 8.370511 0.000000 0.000000 
							CHANNELS 3 Zrotation Yrotation Xrotation
							End Site
							{
								OFFSET 4.083176 0.000000 0.000000 
							}
						}
					}
				}
			}
			JOINT rCollar
			{
				OFFSET -3.470700 6.669187 -0.816635 
				CHANNELS 3 Yrotation Zrotation Xrotation
				JOINT rShldr
				{
					OFFSET -3.198488 0.000000 0.000000 
					CHANNELS 3 Zrotation Yrotation Xrotation
					JOINT rForeArm
					{
						OFFSET -10.139888 0.000000 0.000000 
						CHANNELS 3 Yrotation Zrotation Xrotation
						JOINT rHand
						{
							OFFSET -8.370511 0.000000 0.000000 
							CHANNELS 3 Zrotation Yrotation Xrotation
							End Site
							{
								OFFSET -4.083176 0.000000 0.000000 
							}
						}
					}
				}
			}
		}
	}
	JOINT lThigh
	{
		OFFSET 5.308129 -1.633274 1.361059 
		CHANNELS 3 Xrotation Zrotation Yrotation
		JOINT lShin
		{
			OFFSET -2.041588 -20.007561 0.000000 
			CHANNELS 3 Xrotation Zrotation Yrotation
			JOINT lFoot
			{
				OFFSET 0.000000 -19.190928 -1.224953 
				CHANNELS 3 Xrotation Yrotation Zrotation
				End Site
				{
					OFFSET 0.000000 -2.449906 4.627600 
				}
			}
		}
	}
	JOINT rThigh
	{
		OFFSET -5.308129 -1.633274 1.361059 
		CHANNELS 3 Xrotation Zrotation Yrotation
		JOINT rShin
		{
			OFFSET 2.041588 -20.007561 0.000000 
			CHANNELS 3 Xrotation Zrotation Yrotation
			JOINT rFoot
			{
				OFFSET 0.000000 -19.190928 -1.224953 
				CHANNELS 3 Xrotation Yrotation Zrotation
				End Site
				{
					OFFSET 0.000000 -2.449906 4.627600 
				}
			}
		}
	}
}
MOTION
Frames: 8
Frame Time: 0.033333
0.809578 49.327606 3.238785 -1.500969 0.703010 1.035318 0.000000 0.000000 0.000000 -14.135120 -1.659267 -1.875910 9.969543 -3.398438 0.019497 9.098198 0.458972 -0.419908 -3.521967 9.154817 6.304141 3.211146 14.485968 -34.738972 -18.165741 8.344773 44.546814 -3.757440 6.918944 -8.003109 3.089181 -14.089146 8.026228 0.814701 -6.742990 -38.345364 11.434063 -9.576918 68.126648 3.516794 -5.863260 -8.256903 2.203822 6.145236 7.877099 9.064929 -1.894614 -8.204417 -6.372852 0.371439 -2.289034 3.748354 -10.193343 -16.537830 7.737068 0.357929 0.663850 -6.347323 -0.091677 0.300705 
0.822071 49.324772 3.248334 -1.512637 0.615140 1.006011 0.000000 0.000000 0.000000 -14.186935 -1.551885 -1.895423 10.181876 -3.583982 0.058479 8.929430 0.732396 -0.478477 -3.521967 9.154817 6.304141 3.296194 14.436288 -34.675339 -18.156643 8.339910 44.628204 -3.787876 6.993495 -8.010452 3.089181 -14.089146 8.026228 0.726795 -6.701764 -38.204170 11.425537 -9.535389 68.065857 3.346454 -5.768667 -8.253204 2.176388 6.256983 7.985565 9.183430 -1.894596 -8.230209 -6.448901 0.339360 -2.292954 3.874090 -10.112443 -16.532825 7.494240 0.397053 0.831378 -6.288847 -0.103040 0.252988 
0.837357 49.328083 3.241535 -1.443983 0.644436 0.986485 0.000000 0.000000 0.000000 -14.284481 -1.571424 -1.875901 10.345546 -3.525385 0.097471 8.694874 0.839820 -0.429641 -3.521967 9.154817 6.304141 3.375566 14.457113 -34.621838 -18.201160 8.366761 44.701260 -4.081029 7.004327 -8.000313 3.089181 -14.089146 8.026228 0.685700 -6.653261 -38.281487 11.454986 -9.513333 68.313873 3.403491 -5.622863 -8.243252 2.106285 6.223507 7.983716 9.146223 -2.001922 -8.146785 -6.468493 0.334459 -2.284576 3.766795 -10.122738 -16.471716 7.539598 0.348089 0.460026 -6.542655 -0.106138 0.304973 
0.857226 49.323826 3.260638 -1.503016 0.644443 0.947425 0.000000 0.000000 0.000000 -14.226959 -1.571458 -1.836854 10.224608 -3.281250 0.000000 8.744580 0.722636 -0.429653 -3.521967 9.154817 6.304141 3.509698 14.447078 -34.525440 -18.177818 8.335217 44.287540 -4.167515 7.072110 -7.996010 3.089181 -14.089146 8.026228 0.678004 -6.711184 -38.151203 11.415383 -9.487558 68.345192 3.393780 -5.624263 -8.242296 2.310957 6.173748 7.957025 8.923915 -1.972860 -8.103744 -6.540172 0.336367 -2.209347 3.797721 -10.144561 -16.484545 7.659910 0.298195 0.696801 -6.523144 -0.103841 0.295319 
0.870573 49.328556 3.254347 -1.425053 0.634679 0.947424 0.000000 0.000000 0.000000 -14.313952 -1.590971 -1.846619 10.117763 -3.369141 -0.010323 8.732848 0.849577 -0.497992 -3.521967 9.154817 6.304141 3.370820 14.312597 -35.449055 -18.343973 8.522030 45.268791 -4.231392 6.768951 -7.968443 3.089181 -14.089146 8.026228 0.668893 -6.739149 -38.100338 11.400489 -9.481804 68.263275 3.447120 -5.725449 -8.242279 2.254828 6.150715 7.906264 8.874211 -1.933625 -8.020839 -6.499857 0.337580 -2.240643 3.680858 -10.185726 -16.436260 7.689542 0.298950 0.688280 -6.571960 -0.099012 0.297477 
0.892246 49.328083 3.251365 -1.365963 0.693272 0.908373 0.000000 0.000000 0.000000 -14.380704 -1.649543 -1.836863 9.918918 -3.466796 0.048739 8.877014 1.074175 -0.517487 -3.521967 9.154817 6.304141 3.492285 14.427014 -34.796581 -18.289251 8.408230 44.355106 -4.066539 7.173234 -8.017665 3.089181 -14.089146 8.026228 0.658227 -6.731930 -38.061024 11.350464 -9.449378 68.262306 3.424883 -5.708940 -8.239447 2.194091 6.087866 7.862395 8.879544 -1.982266 -7.867990 -6.489018 0.340378 -2.271363 3.590320 -10.297956 -16.574200 7.774176 0.377416 0.695642 -6.210634 -0.110167 0.303160 
0.917320 49.329498 3.250690 -1.394106 0.742088 0.937674 0.000000 0.000000 0.000000 -14.367313 -1.708050 -1.895436 9.878765 -3.388670 0.068240 8.954995 1.132770 -0.498143 -3.521967 9.154817 6.304141 3.390996 14.341434 -35.304413 -18.359034 8.508119 45.089024 -4.303442 6.936698 -7.977052 3.089181 -14.089146 8.026228 0.676013 -6.719659 -38.082706 11.387813 -9.466528 68.419891 3.375762 -5.636718 -8.240817 2.233371 5.981317 7.773688 8.816586 -1.952829 -7.833435 -6.401090 0.352793 -2.286772 3.689308 -10.368775 -16.534956 7.662194 0.250713 0.938607 -6.161765 -0.096384 0.309251 
0.943770 49.327606 3.225698 -1.394046 0.761621 0.918147 0.000000 0.000000 0.000000 -14.319016 -1.649441 -1.944240 9.858615 -3.417966 0.077986 8.847683 1.142537 -0.488184 -3.521967 9.154817 6.304141 3.315065 14.416413 -34.940414 -18.323486 8.446465 44.504940 -4.197798 7.136266 -8.013087 3.089181 -14.089146 8.026228 0.580221 -6.672762 -38.106621 11.385291 -9.470715 68.278946 3.294647 -5.746146 -8.256739 2.028762 5.962194 7.765256 9.194283 -1.972656 -7.738160 -6.427430 0.343222 -2.344487 3.632648 -10.508006 -16.745220 7.723182 0.386998 1.269837 -6.200927 -0.116401 0.257748 
